<?xml version="1.0" encoding="UTF-8"?>
<svg xmlns="http://www.w3.org/2000/svg" xmlns:xlink="http://www.w3.org/1999/xlink" width="1920px" height="1080px" viewBox="0 0 1920 1080" version="1.1">
    <title>json_kit</title>
    <defs>
        <polygon id="path-1" points="16.5 0 33 11.6666667 29.7 11.6666667 29.7 25 21.45 25 21.45 16.6666667 11.55 16.6666667 11.55 25 3.3 25 3.3 11.6666667 0 11.6666667"/>
        <filter x="-3.0%" y="-4.0%" width="106.1%" height="108.0%" filterUnits="objectBoundingBox" id="filter-2">
            <feGaussianBlur stdDeviation="0.5" in="SourceAlpha" result="shadowBlurInner1"/>
            <feOffset dx="1" dy="1" in="shadowBlurInner1" result="shadowOffsetInner1"/>
            <feComposite in="shadowOffsetInner1" in2="SourceAlpha" operator="arithmetic" k2="-1" k3="1" result="shadowInnerInner1"/>
            <feColorMatrix values="0 0 0 0 0   0 0 0 0 0   0 0 0 0 0  0 0 0 0.05 0" type="matrix" in="shadowInnerInner1"/>
        </filter>
        <filter color-interpolation-filters="auto" id="filter-3">
            <feColorMatrix in="SourceGraphic" type="matrix" values="0 0 0 0 0.968627 0 0 0 0 0.576471 0 0 0 0 0.117647 0 0 0 1.000000 0"/>
        </filter>
        <filter color-interpolation-filters="auto" id="filter-4">
            <feColorMatrix in="SourceGraphic" type="matrix" values="0 0 0 0 0.968627 0 0 0 0 0.576471 0 0 0 0 0.117647 0 0 0 1.000000 0"/>
        </filter>
        <filter color-interpolation-filters="auto" id="filter-5">
            <feColorMatrix in="SourceGraphic" type="matrix" values="0 0 0 0 0.968627 0 0 0 0 0.576471 0 0 0 0 0.117647 0 0 0 1.000000 0"/>
        </filter>
        <filter color-interpolation-filters="auto" id="filter-6">
            <feColorMatrix in="SourceGraphic" type="matrix" values="0 0 0 0 0.968627 0 0 0 0 0.576471 0 0 0 0 0.117647 0 0 0 1.000000 0"/>
        </filter>
        <filter color-interpolation-filters="auto" id="filter-7">
            <feColorMatrix in="SourceGraphic" type="matrix" values="0 0 0 0 0.968627 0 0 0 0 0.576471 0 0 0 0 0.117647 0 0 0 1.000000 0"/>
        </filter>
        <filter color-interpolation-filters="auto" id="filter-8">
            <feColorMatrix in="SourceGraphic" type="matrix" values="0 0 0 0 0.968627 0 0 0 0 0.576471 0 0 0 0 0.117647 0 0 0 1.000000 0"/>
        </filter>
    </defs>
    <g id="json_kit" stroke="none" stroke-width="1" fill="none" fill-rule="evenodd">
        <rect fill="#FFFFFF" x="0" y="0" width="1920" height="1080"/>
        <g id="trees-icon-label" transform="translate(469.000000, 308.500000)">
            <path d="M150.6,52.0642857 L154.4,36.2242857 C154.84,34.1442857 155.24,32.3442857 155.64,30.0642857 L155.8,30.0642857 C156.16,32.3442857 156.48,34.1442857 156.96,36.2242857 L160.84,52.0642857 L165,52.0642857 L170.48,25.8242857 L167.24,25.8242857 L164.44,40.1042857 C163.96,42.9442857 163.48,45.7442857 163.04,48.7042857 L162.88,48.7042857 C162.32,45.7442857 161.64,42.9042857 161,40.1042857 L157.44,25.8242857 L154.12,25.8242857 L150.48,40.1042857 C149.84,42.9442857 149.24,45.7442857 148.72,48.7042857 L148.56,48.7042857 C148.08,45.7442857 147.64,42.9442857 147.12,40.1042857 L144.4,25.8242857 L140.92,25.8242857 L146.48,52.0642857 L150.6,52.0642857 Z M182.28,52.5442857 C187.04,52.5442857 191.32,48.8242857 191.32,42.3842857 C191.32,35.8642857 187.04,32.1442857 182.28,32.1442857 C177.52,32.1442857 173.28,35.8642857 173.28,42.3842857 C173.28,48.8242857 177.52,52.5442857 182.28,52.5442857 Z M182.28,49.7842857 C178.96,49.7842857 176.72,46.8242857 176.72,42.3842857 C176.72,37.9042857 178.96,34.9042857 182.28,34.9042857 C185.64,34.9042857 187.88,37.9042857 187.88,42.3842857 C187.88,46.8242857 185.64,49.7842857 182.28,49.7842857 Z M199.72,52.0642857 L199.72,39.5842857 C201.04,36.3042857 203,35.1442857 204.64,35.1442857 C205.4,35.1442857 205.84,35.2242857 206.4,35.3842857 L207.12,32.5442857 C206.52,32.2642857 205.92,32.1442857 205.04,32.1442857 C202.88,32.1442857 200.88,33.7042857 199.52,36.1442857 L199.4,36.1442857 L199.12,32.6242857 L196.4,32.6242857 L196.4,52.0642857 L199.72,52.0642857 Z M213.6,52.0642857 L213.6,46.9442857 L217.2,42.7442857 L222.88,52.0642857 L226.48,52.0642857 L219.16,40.4642857 L225.64,32.6242857 L221.92,32.6242857 L213.72,42.7842857 L213.6,42.7842857 L213.6,23.5842857 L210.32,23.5842857 L210.32,52.0642857 L213.6,52.0642857 Z M231.8,28.6242857 C233.08,28.6242857 234,27.7842857 234,26.4642857 C234,25.1842857 233.08,24.3042857 231.8,24.3042857 C230.52,24.3042857 229.6,25.1842857 229.6,26.4642857 C229.6,27.7842857 230.52,28.6242857 231.8,28.6242857 Z M233.44,52.0642857 L233.44,32.6242857 L230.12,32.6242857 L230.12,52.0642857 L233.44,52.0642857 Z M243.32,52.0642857 L243.32,37.9842857 C245.24,36.0242857 246.64,35.0242857 248.6,35.0242857 C251.16,35.0242857 252.28,36.5442857 252.28,40.1842857 L252.28,52.0642857 L255.6,52.0642857 L255.6,39.7442857 C255.6,34.7842857 253.76,32.1442857 249.64,32.1442857 C246.96,32.1442857 244.96,33.5842857 243.12,35.4242857 L243,35.4242857 L242.72,32.6242857 L240,32.6242857 L240,52.0642857 L243.32,52.0642857 Z M268.44,61.0242857 C274.48,61.0242857 278.28,57.9042857 278.28,54.2642857 C278.28,51.0642857 276,49.6242857 271.48,49.6242857 L267.72,49.6242857 C265.12,49.6242857 264.32,48.7442857 264.32,47.5442857 C264.32,46.4642857 264.84,45.8242857 265.56,45.2242857 C266.44,45.6642857 267.48,45.9042857 268.44,45.9042857 C272.4,45.9042857 275.56,43.3042857 275.56,39.1442857 C275.56,37.5042857 274.92,36.0642857 274,35.1842857 L277.96,35.1842857 L277.96,32.6242857 L271.2,32.6242857 C270.48,32.3442857 269.52,32.1442857 268.44,32.1442857 C264.48,32.1442857 261.12,34.8242857 261.12,39.0642857 C261.12,41.3842857 262.36,43.2642857 263.64,44.3042857 L263.64,44.4642857 C262.64,45.1442857 261.52,46.4242857 261.52,48.0642857 C261.52,49.5842857 262.28,50.6242857 263.24,51.2242857 L263.24,51.3842857 C261.48,52.5842857 260.4,54.1442857 260.4,55.7842857 C260.4,59.1442857 263.68,61.0242857 268.44,61.0242857 Z M268.44,43.6642857 C266.2,43.6642857 264.32,41.9042857 264.32,39.0642857 C264.32,36.2242857 266.16,34.5442857 268.44,34.5442857 C270.72,34.5442857 272.56,36.2642857 272.56,39.0642857 C272.56,41.9042857 270.68,43.6642857 268.44,43.6642857 Z M268.92,58.7042857 C265.4,58.7042857 263.28,57.4242857 263.28,55.3442857 C263.28,54.2242857 263.88,53.0642857 265.28,52.0642857 C266.12,52.3042857 267.04,52.3842857 267.8,52.3842857 L271.12,52.3842857 C273.68,52.3842857 275.04,52.9842857 275.04,54.7842857 C275.04,56.7842857 272.6,58.7042857 268.92,58.7042857 Z M296.72,52.5442857 C299,52.5442857 301.08,51.2642857 302.6,49.7842857 L302.72,49.7842857 L303,52.0642857 L305.72,52.0642857 L305.72,23.5842857 L302.4,23.5842857 L302.4,31.0642857 L302.56,34.3842857 C300.84,32.9842857 299.36,32.1442857 297.12,32.1442857 C292.68,32.1442857 288.68,36.0642857 288.68,42.3842857 C288.68,48.8642857 291.84,52.5442857 296.72,52.5442857 Z M297.44,49.7442857 C294.04,49.7442857 292.12,46.9842857 292.12,42.3442857 C292.12,37.9042857 294.6,34.9442857 297.68,34.9442857 C299.28,34.9442857 300.76,35.4642857 302.4,36.9442857 L302.4,47.1042857 C300.8,48.8642857 299.24,49.7442857 297.44,49.7442857 Z M313.96,28.6242857 C315.24,28.6242857 316.16,27.7842857 316.16,26.4642857 C316.16,25.1842857 315.24,24.3042857 313.96,24.3042857 C312.68,24.3042857 311.76,25.1842857 311.76,26.4642857 C311.76,27.7842857 312.68,28.6242857 313.96,28.6242857 Z M315.6,52.0642857 L315.6,32.6242857 L312.28,32.6242857 L312.28,52.0642857 L315.6,52.0642857 Z M325.48,52.0642857 L325.48,39.5842857 C326.8,36.3042857 328.76,35.1442857 330.4,35.1442857 C331.16,35.1442857 331.6,35.2242857 332.16,35.3842857 L332.88,32.5442857 C332.28,32.2642857 331.68,32.1442857 330.8,32.1442857 C328.64,32.1442857 326.64,33.7042857 325.28,36.1442857 L325.16,36.1442857 L324.88,32.6242857 L322.16,32.6242857 L322.16,52.0642857 L325.48,52.0642857 Z M343.92,52.5442857 C346.6,52.5442857 348.68,51.7442857 350.36,50.5442857 L349.2,48.4242857 C347.84,49.3442857 346.2,49.8642857 344.32,49.8642857 C340.64,49.8642857 338.2,47.2242857 337.92,43.2242857 L351,43.2242857 C351.12,42.5842857 351.16,41.9842857 351.16,41.2642857 C351.16,35.6642857 348.32,32.1442857 343.36,32.1442857 C338.92,32.1442857 334.64,36.0242857 334.64,42.3442857 C334.64,48.7842857 338.72,52.5442857 343.92,52.5442857 Z M348.2,40.6642857 L337.92,40.6642857 C338.32,36.9442857 340.72,34.7842857 343.44,34.7842857 C346.4,34.7842857 348.2,36.8242857 348.2,40.6642857 Z M363.6,52.5442857 C365.92,52.5442857 368.12,51.6642857 369.88,50.0642857 L368.44,47.9442857 C367.28,48.9842857 365.68,49.7842857 363.88,49.7842857 C360.32,49.7842857 357.92,46.8242857 357.92,42.3842857 C357.92,37.9042857 360.48,34.9042857 364,34.9042857 C365.56,34.9042857 366.8,35.5042857 367.88,36.5042857 L369.52,34.4242857 C368.16,33.1442857 366.4,32.1442857 363.84,32.1442857 C358.84,32.1442857 354.48,35.8642857 354.48,42.3842857 C354.48,48.8242857 358.44,52.5442857 363.6,52.5442857 Z M380.28,52.5442857 C381.6,52.5442857 382.92,52.1842857 383.96,51.7042857 L383.28,49.3442857 C382.48,49.7042857 381.76,49.8242857 381.04,49.8242857 C378.84,49.8242857 378.04,48.4642857 378.04,46.1042857 L378.04,35.3042857 L383.32,35.3042857 L383.32,32.6242857 L378.04,32.6242857 L378.04,26.3842857 L375.28,26.3842857 L374.88,32.6242857 L371.84,32.8242857 L371.84,35.3042857 L374.72,35.3042857 L374.72,46.0242857 C374.72,49.9042857 376.12,52.5442857 380.28,52.5442857 Z M395.28,52.5442857 C400.04,52.5442857 404.32,48.8242857 404.32,42.3842857 C404.32,35.8642857 400.04,32.1442857 395.28,32.1442857 C390.52,32.1442857 386.28,35.8642857 386.28,42.3842857 C386.28,48.8242857 390.52,52.5442857 395.28,52.5442857 Z M395.28,49.7842857 C391.96,49.7842857 389.72,46.8242857 389.72,42.3842857 C389.72,37.9042857 391.96,34.9042857 395.28,34.9042857 C398.64,34.9042857 400.88,37.9042857 400.88,42.3842857 C400.88,46.8242857 398.64,49.7842857 395.28,49.7842857 Z M412.72,52.0642857 L412.72,39.5842857 C414.04,36.3042857 416,35.1442857 417.64,35.1442857 C418.4,35.1442857 418.84,35.2242857 419.4,35.3842857 L420.12,32.5442857 C419.52,32.2642857 418.92,32.1442857 418.04,32.1442857 C415.88,32.1442857 413.88,33.7042857 412.52,36.1442857 L412.4,36.1442857 L412.12,32.6242857 L409.4,32.6242857 L409.4,52.0642857 L412.72,52.0642857 Z M423.68,60.4242857 C427.56,60.4242857 429.6,57.5042857 430.96,53.6642857 L438.28,32.6242857 L435.04,32.6242857 L431.56,43.3442857 C431.04,45.0642857 430.48,47.0642857 429.96,48.8242857 L429.8,48.8242857 C429.16,47.0242857 428.52,45.0242857 427.88,43.3442857 L423.96,32.6242857 L420.52,32.6242857 L428.32,52.1042857 L427.88,53.5442857 C427.08,55.9442857 425.68,57.6642857 423.52,57.6642857 C423.04,57.6642857 422.56,57.5842857 422.08,57.4242857 L421.36,60.0242857 C422,60.2642857 422.76,60.4242857 423.68,60.4242857 Z" id="Workingdirectory" fill="#333333" fill-rule="nonzero"/>
            <g id="folder">
                <path d="M39.1952339,1.36598157 L43.8047661,6.63401843 C44.5643185,7.50207827 45.6616226,8 46.8150729,8 L92,8 C94.209139,8 96,9.790861 96,12 L96,70 L96,70 L4,70 C1.790861,70 -3.86153214e-15,68.209139 0,66 L0,4 C-2.705415e-16,1.790861 1.790861,2.04689834e-15 4,0 L36.1849271,0 C37.3383774,-1.10006381e-15 38.4356815,0.497921729 39.1952339,1.36598157 Z" id="Path" fill="#FCA65C"/>
                <path d="M58.1952339,14.3659816 L62.8047661,19.6340184 C63.5643185,20.5020783 64.6616226,21 65.8150729,21 L96.1538462,21 C98.3629852,21 100.153846,22.790861 100.153846,25 L100.153846,70 L100.153846,70 L12,70 C9.790861,70 8,68.209139 8,66 L8,17 C8,14.790861 9.790861,13 12,13 L55.1849271,13 C56.3383774,13 57.4356815,13.4979217 58.1952339,14.3659816 Z" id="Path" fill="#73B0DE" transform="translate(54.076923, 41.500000) scale(-1, 1) translate(-54.076923, -41.500000) "/>
                <path d="M9,58 L9,70 L4,70 L4.19964034,69.9951047 C6.31603153,69.8910789 8,68.1421954 8,66 L8,66 L8,58 L9,58 Z" id="Combined-Shape" fill="#73B0DE"/>
                <g id="Path" transform="translate(37.000000, 29.000000)">
                    <use fill="#61A2D3" fill-rule="evenodd" xlink:href="#path-1"/>
                    <use fill="black" fill-opacity="1" filter="url(#filter-2)" xlink:href="#path-1"/>
                </g>
            </g>
        </g>
        <g id="trees-icon-label" transform="translate(631.000000, 439.500000)">
            <path d="M146.76,52.5442857 C147.6,52.5442857 148.2,52.4242857 148.68,52.1842857 L148.24,49.7042857 C147.92,49.7842857 147.76,49.7842857 147.56,49.7842857 C147.04,49.7842857 146.6,49.4242857 146.6,48.3842857 L146.6,23.5842857 L143.28,23.5842857 L143.28,48.1442857 C143.28,50.9442857 144.28,52.5442857 146.76,52.5442857 Z M155.16,28.6242857 C156.44,28.6242857 157.36,27.7842857 157.36,26.4642857 C157.36,25.1842857 156.44,24.3042857 155.16,24.3042857 C153.88,24.3042857 152.96,25.1842857 152.96,26.4642857 C152.96,27.7842857 153.88,28.6242857 155.16,28.6242857 Z M156.8,52.0642857 L156.8,32.6242857 L153.48,32.6242857 L153.48,52.0642857 L156.8,52.0642857 Z M171.96,52.5442857 C176.4,52.5442857 180.4,48.6642857 180.4,42.0242857 C180.4,36.0242857 177.68,32.1442857 172.68,32.1442857 C170.52,32.1442857 168.36,33.3042857 166.56,34.8242857 L166.68,31.3442857 L166.68,23.5842857 L163.36,23.5842857 L163.36,52.0642857 L166,52.0642857 L166.32,50.0642857 L166.44,50.0642857 C168.16,51.6242857 170.16,52.5442857 171.96,52.5442857 Z M171.4,49.7442857 C170.12,49.7442857 168.36,49.2242857 166.68,47.7442857 L166.68,37.5842857 C168.52,35.8242857 170.2,34.9442857 171.84,34.9442857 C175.48,34.9442857 176.96,37.7842857 176.96,42.0642857 C176.96,46.8642857 174.6,49.7442857 171.4,49.7442857 Z M190.6,52.5442857 C195.2,52.5442857 197.72,49.9042857 197.72,46.7442857 C197.72,43.2242857 194.8,41.9042857 191.76,40.8242857 C189.32,39.9842857 187.64,39.2642857 187.64,37.5042857 C187.64,36.0642857 188.72,34.7042857 191.2,34.7042857 C192.92,34.7042857 194.32,35.2642857 195.68,36.2642857 L197.2,34.3442857 C195.68,33.0642857 193.6,32.1442857 191.16,32.1442857 C186.92,32.1442857 184.44,34.5442857 184.44,37.6642857 C184.44,40.8642857 187.24,42.2642857 190.16,43.3042857 L190.598839,43.4651509 C192.6384,44.2214413 194.52,45.077619 194.52,46.9442857 C194.52,48.6242857 193.28,49.9442857 190.72,49.9442857 C188.32,49.9442857 186.56,49.2242857 184.88,47.8242857 L183.36,49.7442857 C185.16,51.5042857 187.76,52.5442857 190.6,52.5442857 Z" id="libs" fill="#333333" fill-rule="nonzero"/>
            <g id="folder">
                <path d="M39.1952339,1.36598157 L43.8047661,6.63401843 C44.5643185,7.50207827 45.6616226,8 46.8150729,8 L92,8 C94.209139,8 96,9.790861 96,12 L96,70 L96,70 L4,70 C1.790861,70 -3.86153214e-15,68.209139 0,66 L0,4 C-2.705415e-16,1.790861 1.790861,2.04689834e-15 4,0 L36.1849271,0 C37.3383774,-1.10006381e-15 38.4356815,0.497921729 39.1952339,1.36598157 Z" id="Path" fill="#FCA65C"/>
                <path d="M58.1952339,14.3659816 L62.8047661,19.6340184 C63.5643185,20.5020783 64.6616226,21 65.8150729,21 L96.1538462,21 C98.3629852,21 100.153846,22.790861 100.153846,25 L100.153846,70 L100.153846,70 L12,70 C9.790861,70 8,68.209139 8,66 L8,17 C8,14.790861 9.790861,13 12,13 L55.1849271,13 C56.3383774,13 57.4356815,13.4979217 58.1952339,14.3659816 Z" id="Path" fill="#73B0DE" transform="translate(54.076923, 41.500000) scale(-1, 1) translate(-54.076923, -41.500000) "/>
                <path d="M9,58 L9,70 L4,70 L4.19964034,69.9951047 C6.31603153,69.8910789 8,68.1421954 8,66 L8,66 L8,58 L9,58 Z" id="Combined-Shape" fill="#73B0DE"/>
            </g>
        </g>
        <g id="trees-icon-label" transform="translate(793.000000, 570.500000)">
            <path d="M144.92,28.6242857 C146.2,28.6242857 147.12,27.7842857 147.12,26.4642857 C147.12,25.1842857 146.2,24.3042857 144.92,24.3042857 C143.64,24.3042857 142.72,25.1842857 142.72,26.4642857 C142.72,27.7842857 143.64,28.6242857 144.92,28.6242857 Z M141.28,60.7442857 C145.16,60.7442857 146.64,58.2242857 146.64,54.2242857 L146.64,32.6242857 L143.32,32.6242857 L143.32,54.2242857 C143.32,56.5842857 142.84,58.0242857 140.92,58.0242857 C140.28,58.0242857 139.56,57.8642857 139.08,57.7042857 L138.4,60.1842857 C139.08,60.5042857 140.12,60.7442857 141.28,60.7442857 Z M158.24,52.5442857 C162.84,52.5442857 165.36,49.9042857 165.36,46.7442857 C165.36,43.2242857 162.44,41.9042857 159.4,40.8242857 C156.96,39.9842857 155.28,39.2642857 155.28,37.5042857 C155.28,36.0642857 156.36,34.7042857 158.84,34.7042857 C160.56,34.7042857 161.96,35.2642857 163.32,36.2642857 L164.84,34.3442857 C163.32,33.0642857 161.24,32.1442857 158.8,32.1442857 C154.56,32.1442857 152.08,34.5442857 152.08,37.6642857 C152.08,40.8642857 154.88,42.2642857 157.8,43.3042857 L158.238839,43.4651509 C160.2784,44.2214413 162.16,45.077619 162.16,46.9442857 C162.16,48.6242857 160.92,49.9442857 158.36,49.9442857 C155.96,49.9442857 154.2,49.2242857 152.52,47.8242857 L151,49.7442857 C152.8,51.5042857 155.4,52.5442857 158.24,52.5442857 Z M177.48,52.5442857 C182.24,52.5442857 186.52,48.8242857 186.52,42.3842857 C186.52,35.8642857 182.24,32.1442857 177.48,32.1442857 C172.72,32.1442857 168.48,35.8642857 168.48,42.3842857 C168.48,48.8242857 172.72,52.5442857 177.48,52.5442857 Z M177.48,49.7842857 C174.16,49.7842857 171.92,46.8242857 171.92,42.3842857 C171.92,37.9042857 174.16,34.9042857 177.48,34.9042857 C180.84,34.9042857 183.08,37.9042857 183.08,42.3842857 C183.08,46.8242857 180.84,49.7842857 177.48,49.7842857 Z M194.92,52.0642857 L194.92,37.9842857 C196.84,36.0242857 198.24,35.0242857 200.2,35.0242857 C202.76,35.0242857 203.88,36.5442857 203.88,40.1842857 L203.88,52.0642857 L207.2,52.0642857 L207.2,39.7442857 C207.2,34.7842857 205.36,32.1442857 201.24,32.1442857 C198.56,32.1442857 196.56,33.5842857 194.72,35.4242857 L194.6,35.4242857 L194.32,32.6242857 L191.6,32.6242857 L191.6,52.0642857 L194.92,52.0642857 Z M229.72,57.1042857 L229.72,54.9042857 L210.68,54.9042857 L210.68,57.1042857 L229.72,57.1042857 Z M236.76,52.0642857 L236.76,46.9442857 L240.36,42.7442857 L246.04,52.0642857 L249.64,52.0642857 L242.32,40.4642857 L248.8,32.6242857 L245.08,32.6242857 L236.88,42.7842857 L236.76,42.7842857 L236.76,23.5842857 L233.48,23.5842857 L233.48,52.0642857 L236.76,52.0642857 Z M254.96,28.6242857 C256.24,28.6242857 257.16,27.7842857 257.16,26.4642857 C257.16,25.1842857 256.24,24.3042857 254.96,24.3042857 C253.68,24.3042857 252.76,25.1842857 252.76,26.4642857 C252.76,27.7842857 253.68,28.6242857 254.96,28.6242857 Z M256.6,52.0642857 L256.6,32.6242857 L253.28,32.6242857 L253.28,52.0642857 L256.6,52.0642857 Z M269.28,52.5442857 C270.6,52.5442857 271.92,52.1842857 272.96,51.7042857 L272.28,49.3442857 C271.48,49.7042857 270.76,49.8242857 270.04,49.8242857 C267.84,49.8242857 267.04,48.4642857 267.04,46.1042857 L267.04,35.3042857 L272.32,35.3042857 L272.32,32.6242857 L267.04,32.6242857 L267.04,26.3842857 L264.28,26.3842857 L263.88,32.6242857 L260.84,32.8242857 L260.84,35.3042857 L263.72,35.3042857 L263.72,46.0242857 C263.72,49.9042857 265.12,52.5442857 269.28,52.5442857 Z" id="json_kit" fill="#333333" fill-rule="nonzero"/>
            <g id="folder">
                <path d="M39.1952339,1.36598157 L43.8047661,6.63401843 C44.5643185,7.50207827 45.6616226,8 46.8150729,8 L92,8 C94.209139,8 96,9.790861 96,12 L96,70 L96,70 L4,70 C1.790861,70 -3.86153214e-15,68.209139 0,66 L0,4 C-2.705415e-16,1.790861 1.790861,2.04689834e-15 4,0 L36.1849271,0 C37.3383774,-1.10006381e-15 38.4356815,0.497921729 39.1952339,1.36598157 Z" id="Path" fill="#FCA65C"/>
                <path d="M58.1952339,14.3659816 L62.8047661,19.6340184 C63.5643185,20.5020783 64.6616226,21 65.8150729,21 L96.1538462,21 C98.3629852,21 100.153846,22.790861 100.153846,25 L100.153846,70 L100.153846,70 L12,70 C9.790861,70 8,68.209139 8,66 L8,17 C8,14.790861 9.790861,13 12,13 L55.1849271,13 C56.3383774,13 57.4356815,13.4979217 58.1952339,14.3659816 Z" id="Path" fill="#73B0DE" transform="translate(54.076923, 41.500000) scale(-1, 1) translate(-54.076923, -41.500000) "/>
                <path d="M9,58 L9,70 L4,70 L4.19964034,69.9951047 C6.31603153,69.8910789 8,68.1421954 8,66 L8,66 L8,58 L9,58 Z" id="Combined-Shape" fill="#73B0DE"/>
            </g>
        </g>
        <g id="trees-icon-label" transform="translate(955.000000, 701.000000)">
            <path d="M130.6,52 L130.6,37.92 C132.4,35.92 134,34.96 135.44,34.96 C137.92,34.96 139.04,36.48 139.04,40.12 L139.04,52 L142.36,52 L142.36,37.92 C144.16,35.92 145.72,34.96 147.24,34.96 C149.68,34.96 150.84,36.48 150.84,40.12 L150.84,52 L154.16,52 L154.16,39.68 C154.16,34.72 152.24,32.08 148.24,32.08 C145.88,32.08 143.84,33.6 141.84,35.76 C141.04,33.48 139.44,32.08 136.44,32.08 C134.12,32.08 132.12,33.52 130.4,35.36 L130.28,35.36 L130,32.56 L127.28,32.56 L127.28,52 L130.6,52 Z M168.28,52.48 C170.96,52.48 173.04,51.68 174.72,50.48 L173.56,48.36 C172.2,49.28 170.56,49.8 168.68,49.8 C165,49.8 162.56,47.16 162.28,43.16 L175.36,43.16 C175.48,42.52 175.52,41.92 175.52,41.2 C175.52,35.6 172.68,32.08 167.72,32.08 C163.28,32.08 159,35.96 159,42.28 C159,48.72 163.08,52.48 168.28,52.48 Z M172.56,40.6 L162.28,40.6 C162.68,36.88 165.08,34.72 167.8,34.72 C170.76,34.72 172.56,36.76 172.56,40.6 Z M186.84,60.96 C192.88,60.96 196.68,57.84 196.68,54.2 C196.68,51 194.4,49.56 189.88,49.56 L186.12,49.56 C183.52,49.56 182.72,48.68 182.72,47.48 C182.72,46.4 183.24,45.76 183.96,45.16 C184.84,45.6 185.88,45.84 186.84,45.84 C190.8,45.84 193.96,43.24 193.96,39.08 C193.96,37.44 193.32,36 192.4,35.12 L196.36,35.12 L196.36,32.56 L189.6,32.56 C188.88,32.28 187.92,32.08 186.84,32.08 C182.88,32.08 179.52,34.76 179.52,39 C179.52,41.32 180.76,43.2 182.04,44.24 L182.04,44.4 C181.04,45.08 179.92,46.36 179.92,48 C179.92,49.52 180.68,50.56 181.64,51.16 L181.64,51.32 C179.88,52.52 178.8,54.08 178.8,55.72 C178.8,59.08 182.08,60.96 186.84,60.96 Z M186.84,43.6 C184.6,43.6 182.72,41.84 182.72,39 C182.72,36.16 184.56,34.48 186.84,34.48 C189.12,34.48 190.96,36.2 190.96,39 C190.96,41.84 189.08,43.6 186.84,43.6 Z M187.32,58.64 C183.8,58.64 181.68,57.36 181.68,55.28 C181.68,54.16 182.28,53 183.68,52 C184.52,52.24 185.44,52.32 186.2,52.32 L189.52,52.32 C192.08,52.32 193.44,52.92 193.44,54.72 C193.44,56.72 191,58.64 187.32,58.64 Z M204.96,52.48 C207.4,52.48 209.52,51.24 211.36,49.68 L211.48,49.68 L211.8,52 L214.52,52 L214.52,40.04 C214.52,35.24 212.48,32.08 207.76,32.08 C204.64,32.08 201.92,33.4 200.12,34.6 L201.4,36.84 C202.92,35.84 204.96,34.84 207.2,34.84 C210.36,34.84 211.16,37.2 211.2,39.64 C202.88,40.56 199.28,42.64 199.28,46.96 C199.28,50.48 201.72,52.48 204.96,52.48 Z M205.88,49.76 C204,49.76 202.52,48.92 202.52,46.76 C202.52,44.24 204.64,42.76 211.2,42 L211.2,47.28 C209.32,48.92 207.76,49.76 205.88,49.76 Z M227.28,52.48 C229.56,52.48 231.64,51.2 233.16,49.72 L233.28,49.72 L233.56,52 L236.28,52 L236.28,23.52 L232.96,23.52 L232.96,31 L233.12,34.32 C231.4,32.92 229.92,32.08 227.68,32.08 C223.24,32.08 219.24,36 219.24,42.32 C219.24,48.8 222.4,52.48 227.28,52.48 Z M228,49.68 C224.6,49.68 222.68,46.92 222.68,42.28 C222.68,37.84 225.16,34.88 228.24,34.88 C229.84,34.88 231.32,35.4 232.96,36.88 L232.96,47.04 C231.36,48.8 229.8,49.68 228,49.68 Z M247.32,52.48 C249.76,52.48 251.88,51.24 253.72,49.68 L253.84,49.68 L254.16,52 L256.88,52 L256.88,40.04 C256.88,35.24 254.84,32.08 250.12,32.08 C247,32.08 244.28,33.4 242.48,34.6 L243.76,36.84 C245.28,35.84 247.32,34.84 249.56,34.84 C252.72,34.84 253.52,37.2 253.56,39.64 C245.24,40.56 241.64,42.64 241.64,46.96 C241.64,50.48 244.08,52.48 247.32,52.48 Z M248.24,49.76 C246.36,49.76 244.88,48.92 244.88,46.76 C244.88,44.24 247,42.76 253.56,42 L253.56,47.28 C251.68,48.92 250.12,49.76 248.24,49.76 Z M266.48,52.48 C267.32,52.48 267.92,52.36 268.4,52.12 L267.96,49.64 C267.64,49.72 267.48,49.72 267.28,49.72 C266.76,49.72 266.32,49.36 266.32,48.32 L266.32,23.52 L263,23.52 L263,48.08 C263,50.88 264,52.48 266.48,52.48 Z M277.68,52.48 C280.12,52.48 282.24,51.24 284.08,49.68 L284.2,49.68 L284.52,52 L287.24,52 L287.24,40.04 C287.24,35.24 285.2,32.08 280.48,32.08 C277.36,32.08 274.64,33.4 272.84,34.6 L274.12,36.84 C275.64,35.84 277.68,34.84 279.92,34.84 C283.08,34.84 283.88,37.2 283.92,39.64 C275.6,40.56 272,42.64 272,46.96 C272,50.48 274.44,52.48 277.68,52.48 Z M278.6,49.76 C276.72,49.76 275.24,48.92 275.24,46.76 C275.24,44.24 277.36,42.76 283.92,42 L283.92,47.28 C282.04,48.92 280.48,49.76 278.6,49.76 Z M299.48,52.48 C300.8,52.48 302.12,52.12 303.16,51.64 L302.48,49.28 C301.68,49.64 300.96,49.76 300.24,49.76 C298.04,49.76 297.24,48.4 297.24,46.04 L297.24,35.24 L302.52,35.24 L302.52,32.56 L297.24,32.56 L297.24,26.32 L294.48,26.32 L294.08,32.56 L291.04,32.76 L291.04,35.24 L293.92,35.24 L293.92,45.96 C293.92,49.84 295.32,52.48 299.48,52.48 Z M311.4,52.48 C313.84,52.48 315.96,51.24 317.8,49.68 L317.92,49.68 L318.24,52 L320.96,52 L320.96,40.04 C320.96,35.24 318.92,32.08 314.2,32.08 C311.08,32.08 308.36,33.4 306.56,34.6 L307.84,36.84 C309.36,35.84 311.4,34.84 313.64,34.84 C316.8,34.84 317.6,37.2 317.64,39.64 C309.32,40.56 305.72,42.64 305.72,46.96 C305.72,50.48 308.16,52.48 311.4,52.48 Z M312.32,49.76 C310.44,49.76 308.96,48.92 308.96,46.76 C308.96,44.24 311.08,42.76 317.64,42 L317.64,47.28 C315.76,48.92 314.2,49.76 312.32,49.76 Z M334.64,43.24 L334.64,40.68 L325.44,40.68 L325.44,43.24 L334.64,43.24 Z M341.16,28.56 C342.44,28.56 343.36,27.72 343.36,26.4 C343.36,25.12 342.44,24.24 341.16,24.24 C339.88,24.24 338.96,25.12 338.96,26.4 C338.96,27.72 339.88,28.56 341.16,28.56 Z M337.52,60.68 C341.4,60.68 342.88,58.16 342.88,54.16 L342.88,32.56 L339.56,32.56 L339.56,54.16 C339.56,56.52 339.08,57.96 337.16,57.96 C336.52,57.96 335.8,57.8 335.32,57.64 L334.64,60.12 C335.32,60.44 336.36,60.68 337.52,60.68 Z M354.48,52.48 C359.08,52.48 361.6,49.84 361.6,46.68 C361.6,43.16 358.68,41.84 355.64,40.76 C353.2,39.92 351.52,39.2 351.52,37.44 C351.52,36 352.6,34.64 355.08,34.64 C356.8,34.64 358.2,35.2 359.56,36.2 L361.08,34.28 C359.56,33 357.48,32.08 355.04,32.08 C350.8,32.08 348.32,34.48 348.32,37.6 C348.32,40.8 351.12,42.2 354.04,43.24 C356.24,44.04 358.4,44.88 358.4,46.88 C358.4,48.56 357.16,49.88 354.6,49.88 C352.2,49.88 350.44,49.16 348.76,47.76 L347.24,49.68 C349.04,51.44 351.64,52.48 354.48,52.48 Z M373.72,52.48 C378.48,52.48 382.76,48.76 382.76,42.32 C382.76,35.8 378.48,32.08 373.72,32.08 C368.96,32.08 364.72,35.8 364.72,42.32 C364.72,48.76 368.96,52.48 373.72,52.48 Z M373.72,49.72 C370.4,49.72 368.16,46.76 368.16,42.32 C368.16,37.84 370.4,34.84 373.72,34.84 C377.08,34.84 379.32,37.84 379.32,42.32 C379.32,46.76 377.08,49.72 373.72,49.72 Z M391.16,52 L391.16,37.92 C393.08,35.96 394.48,34.96 396.44,34.96 C399,34.96 400.12,36.48 400.12,40.12 L400.12,52 L403.44,52 L403.44,39.68 C403.44,34.72 401.6,32.08 397.48,32.08 C394.8,32.08 392.8,33.52 390.96,35.36 L390.84,35.36 L390.56,32.56 L387.84,32.56 L387.84,52 L391.16,52 Z M417.28,43.24 L417.28,40.68 L408.08,40.68 L408.08,43.24 L417.28,43.24 Z M425.44,52 L425.44,46.88 L429.04,42.68 L434.72,52 L438.32,52 L431,40.4 L437.48,32.56 L433.76,32.56 L425.56,42.72 L425.44,42.72 L425.44,23.52 L422.16,23.52 L422.16,52 L425.44,52 Z M443.64,28.56 C444.92,28.56 445.84,27.72 445.84,26.4 C445.84,25.12 444.92,24.24 443.64,24.24 C442.36,24.24 441.44,25.12 441.44,26.4 C441.44,27.72 442.36,28.56 443.64,28.56 Z M445.28,52 L445.28,32.56 L441.96,32.56 L441.96,52 L445.28,52 Z M457.96,52.48 C459.28,52.48 460.6,52.12 461.64,51.64 L460.96,49.28 C460.16,49.64 459.44,49.76 458.72,49.76 C456.52,49.76 455.72,48.4 455.72,46.04 L455.72,35.24 L461,35.24 L461,32.56 L455.72,32.56 L455.72,26.32 L452.96,26.32 L452.56,32.56 L449.52,32.76 L449.52,35.24 L452.4,35.24 L452.4,45.96 C452.4,49.84 453.8,52.48 457.96,52.48 Z M467.12,52.48 C468.44,52.48 469.52,51.44 469.52,49.96 C469.52,48.44 468.44,47.4 467.12,47.4 C465.8,47.4 464.72,48.44 464.72,49.96 C464.72,51.44 465.8,52.48 467.12,52.48 Z M478.72,52 L478.72,37.92 C480.52,35.92 482.12,34.96 483.56,34.96 C486.04,34.96 487.16,36.48 487.16,40.12 L487.16,52 L490.48,52 L490.48,37.92 C492.28,35.92 493.84,34.96 495.36,34.96 C497.8,34.96 498.96,36.48 498.96,40.12 L498.96,52 L502.28,52 L502.28,39.68 C502.28,34.72 500.36,32.08 496.36,32.08 C494,32.08 491.96,33.6 489.96,35.76 C489.16,33.48 487.56,32.08 484.56,32.08 C482.24,32.08 480.24,33.52 478.52,35.36 L478.4,35.36 L478.12,32.56 L475.4,32.56 L475.4,52 L478.72,52 Z M515.12,60.96 C521.16,60.96 524.96,57.84 524.96,54.2 C524.96,51 522.68,49.56 518.16,49.56 L514.4,49.56 C511.8,49.56 511,48.68 511,47.48 C511,46.4 511.52,45.76 512.24,45.16 C513.12,45.6 514.16,45.84 515.12,45.84 C519.08,45.84 522.24,43.24 522.24,39.08 C522.24,37.44 521.6,36 520.68,35.12 L524.64,35.12 L524.64,32.56 L517.88,32.56 C517.16,32.28 516.2,32.08 515.12,32.08 C511.16,32.08 507.8,34.76 507.8,39 C507.8,41.32 509.04,43.2 510.32,44.24 L510.32,44.4 C509.32,45.08 508.2,46.36 508.2,48 C508.2,49.52 508.96,50.56 509.92,51.16 L509.92,51.32 C508.16,52.52 507.08,54.08 507.08,55.72 C507.08,59.08 510.36,60.96 515.12,60.96 Z M515.12,43.6 C512.88,43.6 511,41.84 511,39 C511,36.16 512.84,34.48 515.12,34.48 C517.4,34.48 519.24,36.2 519.24,39 C519.24,41.84 517.36,43.6 515.12,43.6 Z M515.6,58.64 C512.08,58.64 509.96,57.36 509.96,55.28 C509.96,54.16 510.56,53 511.96,52 C512.8,52.24 513.72,52.32 514.48,52.32 L517.8,52.32 C520.36,52.32 521.72,52.92 521.72,54.72 C521.72,56.72 519.28,58.64 515.6,58.64 Z M532.08,60.2 L532.08,53.64 L532,50.24 C533.76,51.64 535.6,52.48 537.36,52.48 C541.8,52.48 545.8,48.6 545.8,42 C545.8,35.96 543.08,32.08 538.08,32.08 C535.84,32.08 533.64,33.32 531.88,34.8 L531.76,34.8 L531.48,32.56 L528.76,32.56 L528.76,60.2 L532.08,60.2 Z M536.8,49.68 C535.52,49.68 533.84,49.16 532.08,47.68 L532.08,37.52 C533.96,35.76 535.6,34.88 537.24,34.88 C540.88,34.88 542.36,37.72 542.36,42 C542.36,46.8 540,49.68 536.8,49.68 Z" id="megadalata-json-kit.mgp" fill="#333333" fill-rule="nonzero"/>
            <g id="Group">
                <path d="M64,0 C66.209139,-4.05812251e-16 68,1.790861 68,4 L68,66 C68,68.209139 66.209139,70 64,70 L60,70 C62.209139,70 64,68.209139 64,66 L64,66 L64,4 C64,1.790861 62.209139,-4.05812251e-16 60,0 L60,0 L64,0 Z" id="Combined-Shape" fill="#FCA65C"/>
                <path d="M72,0 C74.209139,-4.05812251e-16 76,1.790861 76,4 L76,66 C76,68.209139 74.209139,70 72,70 L68,70 C70.209139,70 72,68.209139 72,66 L72,66 L72,4 C72,1.790861 70.209139,-4.05812251e-16 68,0 L68,0 L72,0 Z" id="Combined-Shape" fill="#FCA65C"/>
                <path d="M80,0 C82.209139,-4.05812251e-16 84,1.790861 84,4 L84,66 C84,68.209139 82.209139,70 80,70 L76,70 C78.209139,70 80,68.209139 80,66 L80,66 L80,4 C80,1.790861 78.209139,-4.05812251e-16 76,0 L76,0 L80,0 Z" id="Combined-Shape" fill="#FCA65C"/>
                <rect id="Rectangle" fill="#73B0DE" x="0" y="0" width="60" height="70" rx="4"/>
                <g transform="translate(12.000000, 22.000000)" fill="#F9F9F9" id="Rectangle">
                    <rect x="0" y="0" width="36" height="2" rx="1"/>
                    <rect x="0" y="6" width="36" height="2" rx="1"/>
                    <rect x="0" y="12" width="36" height="2" rx="1"/>
                    <rect x="0" y="18" width="36" height="2" rx="1"/>
                    <rect x="0" y="24" width="25" height="2" rx="1"/>
                </g>
            </g>
        </g>
        <g id="Arrow/Gray-Circle/L-Shape-Copy" transform="translate(559.000000, 438.500000) rotate(-180.000000) translate(-559.000000, -438.500000) translate(509.000000, 389.000000)">
            <path d="M16,10 L90,10 L90,83" id="Path-4" stroke="#9A9FAF" stroke-width="4" stroke-dasharray="6"/>
            <g id="Start-point" transform="translate(80.000000, 79.000000)" filter="url(#filter-3)">
                <g transform="translate(10.000000, 10.000000) rotate(90.000000) translate(-10.000000, -10.000000) ">
                    <path d="M10,0 C15.5228475,0 20,4.4771525 20,10 C20,15.5228475 15.5228475,20 10,20 C4.4771525,20 0,15.5228475 0,10 C0,4.4771525 4.4771525,0 10,0 Z M10,6 C7.790861,6 6,7.790861 6,10 C6,12.209139 7.790861,14 10,14 C12.209139,14 14,12.209139 14,10 C14,7.790861 12.209139,6 10,6 Z" id="Shape" fill="#F7931E"/>
                </g>
            </g>
            <g id="Start-point" filter="url(#filter-4)">
                <g transform="translate(10.000000, 10.000000) rotate(90.000000) translate(-10.000000, -10.000000) ">
                    <path d="M10,0 C15.5228475,0 20,4.4771525 20,10 C20,15.5228475 15.5228475,20 10,20 C4.4771525,20 0,15.5228475 0,10 C0,4.4771525 4.4771525,0 10,0 Z M10,6 C7.790861,6 6,7.790861 6,10 C6,12.209139 7.790861,14 10,14 C12.209139,14 14,12.209139 14,10 C14,7.790861 12.209139,6 10,6 Z" id="Shape" fill="#F7931E"/>
                </g>
            </g>
        </g>
        <g id="Arrow/Gray-Circle/L-Shape-Copy" transform="translate(721.000000, 569.500000) rotate(-180.000000) translate(-721.000000, -569.500000) translate(671.000000, 520.000000)">
            <path d="M16,10 L90,10 L90,83" id="Path-4" stroke="#9A9FAF" stroke-width="4" stroke-dasharray="6"/>
            <g id="Start-point" transform="translate(80.000000, 79.000000)" filter="url(#filter-5)">
                <g transform="translate(10.000000, 10.000000) rotate(90.000000) translate(-10.000000, -10.000000) ">
                    <path d="M10,0 C15.5228475,0 20,4.4771525 20,10 C20,15.5228475 15.5228475,20 10,20 C4.4771525,20 0,15.5228475 0,10 C0,4.4771525 4.4771525,0 10,0 Z M10,6 C7.790861,6 6,7.790861 6,10 C6,12.209139 7.790861,14 10,14 C12.209139,14 14,12.209139 14,10 C14,7.790861 12.209139,6 10,6 Z" id="Shape" fill="#F7931E"/>
                </g>
            </g>
            <g id="Start-point" filter="url(#filter-6)">
                <g transform="translate(10.000000, 10.000000) rotate(90.000000) translate(-10.000000, -10.000000) ">
                    <path d="M10,0 C15.5228475,0 20,4.4771525 20,10 C20,15.5228475 15.5228475,20 10,20 C4.4771525,20 0,15.5228475 0,10 C0,4.4771525 4.4771525,0 10,0 Z M10,6 C7.790861,6 6,7.790861 6,10 C6,12.209139 7.790861,14 10,14 C12.209139,14 14,12.209139 14,10 C14,7.790861 12.209139,6 10,6 Z" id="Shape" fill="#F7931E"/>
                </g>
            </g>
        </g>
        <g id="Arrow/Gray-Circle/L-Shape-Copy" transform="translate(883.000000, 698.000000) rotate(-180.000000) translate(-883.000000, -698.000000) translate(833.000000, 651.000000)">
            <path d="M16,10 L90,10 L90,78" id="Path-4" stroke="#9A9FAF" stroke-width="4" stroke-dasharray="6"/>
            <g id="Start-point" transform="translate(80.000000, 74.000000)" filter="url(#filter-7)">
                <g transform="translate(10.000000, 10.000000) rotate(90.000000) translate(-10.000000, -10.000000) ">
                    <path d="M10,0 C15.5228475,0 20,4.4771525 20,10 C20,15.5228475 15.5228475,20 10,20 C4.4771525,20 0,15.5228475 0,10 C0,4.4771525 4.4771525,0 10,0 Z M10,6 C7.790861,6 6,7.790861 6,10 C6,12.209139 7.790861,14 10,14 C12.209139,14 14,12.209139 14,10 C14,7.790861 12.209139,6 10,6 Z" id="Shape" fill="#F7931E"/>
                </g>
            </g>
            <g id="Start-point" filter="url(#filter-8)">
                <g transform="translate(10.000000, 10.000000) rotate(90.000000) translate(-10.000000, -10.000000) ">
                    <path d="M10,0 C15.5228475,0 20,4.4771525 20,10 C20,15.5228475 15.5228475,20 10,20 C4.4771525,20 0,15.5228475 0,10 C0,4.4771525 4.4771525,0 10,0 Z M10,6 C7.790861,6 6,7.790861 6,10 C6,12.209139 7.790861,14 10,14 C12.209139,14 14,12.209139 14,10 C14,7.790861 12.209139,6 10,6 Z" id="Shape" fill="#F7931E"/>
                </g>
            </g>
        </g>
    </g>
</svg>
